<svg version="1" xmlns="http://www.w3.org/2000/svg" width="1333.333" height="1333.333" viewBox="0 0 1000.000000 1000.000000"><path d="M310.5 33.7c-8.5 1.3-2.2 3.8 18 7.2 16.5 2.9 21.1 3.9 23.2 5 1 .6 5.1 2 9.2 3.2 4.1 1.1 9.7 3.1 12.5 4.4 2.8 1.2 8.7 3.6 13.1 5.3 9.8 3.8 35.2 16.6 42.1 21.2 2.8 1.9 9.8 6.7 15.5 10.5 5.7 3.9 16 10.9 22.9 15.5 9.3 6.2 15.9 11.8 25.6 21.5 14.4 14.3 20.4 22.2 26.1 34.1 3.1 6.5 3.8 8.9 3.7 13.6-.2 9.6-3.5 11.4-8.3 4.4-5.3-7.7-11.3-12.9-27.1-23.5-19.6-13.2-28.6-17.5-42.6-20.2-13.5-2.6-34.2-2.4-41.1.5-7.3 3.1-5.5 4.1 7 4.1 11 0 24.3 1.6 30.2 3.7 6.2 2.2 20.1 11.5 27.9 18.6 8.5 7.8 11.5 11.2 19.4 22.7 6.3 9 8.1 12.5 9.1 17.9 1 5.2.4 5.6-9.1 5.6H482l-8.5-8.2c-12.4-11.8-22.7-19.4-33.1-24.3-5.1-2.4-9.5-4.8-9.8-5.3-1.2-2-15.9-7.3-23.9-8.8-15.4-2.7-28.7-1.3-39.3 4-8.2 4.1-17.4 14-17.4 18.7 0 1.8 3.6.9 11-2.7 4.1-2 8.6-3.8 10-4 13.2-1.6 15.4-1.7 18.4-.1 1.7.9 5.9 2.3 9.4 3.1 3.5.9 9.7 3.1 13.8 5.1 6.5 2.9 9.2 5.1 19 15 6.3 6.4 11.4 12 11.4 12.5 0 1.3-17.3 6.3-22 6.3-5-.1-9-1.3-17-5.6-3-1.6-8.2-3.9-11.5-5.2-3.3-1.2-8.9-3.7-12.4-5.4-3.6-1.7-7.2-3.1-8-3.1-.9 0-4.1-1-7.1-2.1-16.6-6.4-34.9-9-44.9-6.4-11.5 3-22.1 11.2-24.2 18.7-1.6 5.9.4 7.8 3.2 3 1-1.6 4.7-4.4 9.8-7 7.5-4 8.8-4.4 15.4-4.4 10.3.1 29.2 5.7 34 10.2 1.2 1 5.8 4.8 10.2 8.3 4.5 3.7 9.9 9.1 12.3 12.5l4.2 6.1-6.7 4.6c-3.9 2.6-7.9 4.5-9.5 4.5-4.5 0-15.3-2.8-35.3-9.2-58.5-18.6-62.1-19.4-85-19.2-19.4.2-29.4 1.9-40 6.9-4.4 2-9 4.1-10.3 4.6-3.5 1.3-17.9 12.8-25.8 20.6-5.8 5.7-7.8 8.6-12.3 17.8-8.5 17.4-9.2 19.5-10.6 31.8-1 7.8 1.1 23.8 4.1 31.2 1.3 3.3 2.4 6.4 2.4 6.8 0 .5 2.1 3.3 4.7 6.3 7.6 8.8 11.3 6.8 6.9-3.9-3.4-8.3-5.5-16.7-6.2-25.2-.7-8.3 1.9-17.4 8.3-29.3 8-14.6 33.2-32.6 46.6-33 2.1-.1 4.2-.4 4.7-.7 2-1.3 31.7-.5 40 .9 10.1 1.8 37.8 9.6 44.8 12.6 6.5 2.8 11.3 7.8 11.5 12 .2 3.7.8 3.4-25.3 15.8-8 3.8-18.1 9.5-22.5 12.7-4.4 3.2-13.8 9.9-20.8 14.8-7 5-14.7 10.7-17 12.7-2.3 2-6 4.8-8.2 6.2-2.2 1.4-8.9 7-15 12.4-28.6 25.7-45.8 47.3-57.7 72.4-11.2 23.7-13.9 40.1-9.9 60.5 2.6 13.4 6 24 7.2 22.8.5-.5 1.2-7.2 1.5-14.8 1-22.1 2.9-28.4 14.7-46.7 10.8-16.9 25.2-32.9 36.6-40.5 3.1-2.1 5.8-4.1 6.1-4.4.3-.4 3.7-3 7.5-5.9 23.7-18 43.9-27 60.4-27 8.8 0 11.1.7 11.1 3.4 0 3.1-12.1 21.8-23.5 36.2-5.5 6.9-12.2 15.9-15 19.9-9.6 13.8-12 17.1-17.5 24.1-3 4-10.6 14.5-16.7 23.5-6.2 9-14.1 20.5-17.5 25.5-3.5 5-10.1 13.8-14.7 19.5-7.8 9.7-18.1 24.1-18.1 25.4 0 .3.9.5 2.1.5 1.1 0 1.8.4 1.5.9-1.6 2.5-24-2.7-36.4-8.4-9.4-4.4-29.8-17.6-41.2-26.7-4.7-3.8-12.3-9.9-17-13.6-4.7-3.7-11-9.4-14-12.7-3-3.3-10.5-11.1-16.7-17.5-6.1-6.3-15.1-15.8-20-21-4.8-5.2-9.3-9.6-10-9.8-3.3-.9-2.2 4.5 4.4 19.8 11.9 27.6 28.1 55.3 44.9 76.5 3.5 4.4 9 11.7 12.3 16.1 9.4 12.7 39.2 44.5 55.6 59.4 8.2 7.4 17.4 15.8 20.5 18.6 7.2 6.7 28 23.4 31.9 25.7 2.8 1.6 3.1 1.6 3.1.2 0-2.4 3-7.6 4-7 .5.3 1.2 0 1.6-.6.4-.8.3-.9-.4-.5s-1.2.1-1.2-.7c0-.8.6-1.7 1.4-2 .8-.3 1.3-1.4 1-2.4-1-4.2 4.6-7.7 10-6.2 5 1.4 7.2 3.8 8.1 8.8.5 3.3.2 4.8-1.5 7.6-2.4 3.9-4.9 4.4-9 1.9-1.7-1-1.8-1.3-.5-.9 4.7 1.7 5.5 1.7 6.1.1 1.7-4.4-3.7-10.2-8.8-9.4-4 .6-3 2.5 1.6 3.2 5.6.9 6.6 2.2 2.9 3.8-4.8 2-6.3 3.9-6.3 7.8 0 3.2.5 3.9 4 5.9 4 2.2 4 2.3 4.1 8.4.1 4.5.3 5.4.8 3.2 1-4.6 2.6-3.5 2.9 2 .3 4.5-.1 5.4-3 8.7-1.8 1.9-4.3 4.1-5.5 4.7-1.9 1-2.5.6-5.2-2.6-1.7-2.1-3.8-5.8-4.7-8.3-.9-2.5-2-5.4-2.5-6.5-1.6-3.5 0 3.4 2.3 9.8 2.2 6.1 5.6 9.1 11.6 10.3 2.7.5 3.6.1 6.2-2.6 3.1-3.3 4.5-7.2 5.5-15.2l.6-4.6 9.6 4.9c9.4 4.8 13.7 5.8 17.3 3.9 3-1.6 8-10.7 8.1-14.8.2-6.4-11.5-28.1-21.4-39.7-1.9-2.2-4-5.1-4.7-6.5-.7-1.4-2.8-4.5-4.7-6.9-6.6-8.7-4.2-9.8 13-5.6 5.6 1.3 13.8 2.9 18.2 3.5 15.2 1.9 38.3 7.6 40.9 10.1 2 1.8 2 2-.8 20.6-1.5 10.4-3.8 25.1-5.1 32.8-1.3 7.7-3.7 23-5.5 34-1.8 11-5.4 32-8.1 46.7-2.6 14.6-5.5 32.6-6.4 40-1.5 12.2-3 23.1-8.5 59.3-3.2 21.1-9.9 87.5-10.7 106.9-.4 8.5-.2 11.7.6 11.2.6-.4 1.1-1.9 1.1-3.3 0-5 7.2-34.7 10.7-44.2 3.5-9.6 13.7-40.7 23.8-72.6 3-9.4 9.1-26 13.6-37s11-27.2 14.5-35.9 8.7-20.2 11.7-25.5c3-5.4 5.7-10.7 6.1-11.8.4-1.2 3-6.4 5.8-11.5 2.7-5.1 7-13.3 9.5-18.1 7.5-15.1 23.5-41 24.3-39.7.4.7 1.2 1 1.7.7.4-.3 1.9.1 3.3.9 1.4.7 2.1 1.3 1.7 1.4-.5 0-1.7-.5-2.8-1-1.2-.7-1.9-.7-1.9-.1s-.6.8-1.4.5c-.8-.3-2.2 1-3.6 3.3-11.6 19.6-17.8 31-20.5 37.5-1.8 4.2-3.7 8.3-4.2 9-.6.7-.9 3.1-.7 5.3.2 2.2.8 7.8 1.3 12.5s1.7 16.1 2.5 25.5c.9 9.3 2.3 21.7 3.1 27.5 2 14.3 2.3 16.8 3.5 29.8 1 11.2 5.6 42.1 6.3 42.8.2.2.9-5.3 1.6-12.3.7-7.1 1.7-16.9 2.2-21.8.5-5 1.3-16.7 1.9-26 1.5-24.6 4.9-55.7 8.1-75.5.6-3.6 1.5-9 1.9-12 .5-3 2.7-11 5-17.8l4-12.3-2.5-6.3c-1.4-3.4-2.5-6.6-2.5-6.9 0-1.5 2.1-.6 2.7 1 .3 1 1.2 2.5 2 3.4 1.4 1.7 2.1 6.8 5.3 40.9 1.2 11.8 5 48.9 8.5 82.5 3.5 33.5 8.9 85.3 12 115 4.9 47.4 6.5 60.4 6.5 52.7 0-1.1.9-16.6 2-34.4 1.1-17.8 3.1-52.1 4.5-76.3 7.3-126.4 7.4-127.4 10.1-139 1.4-6.1 4.1-14.3 6-18.3 4-8.2 4.2-8.3 14.8-5.6 7.2 1.8 10.2 4 4.1 3-2.2-.4-6.3-.9-9.1-1.3l-5.2-.6-2.7 4.7c-3.1 5.3-3.1 5.6 1.9 17.9 4.4 10.6 6.2 17.2 7.6 28 .6 4.5 2.2 14.9 3.5 23.2 1.3 8.2 2.9 20.2 3.6 26.5l1.3 11.5.8-8.5c2.4-28.2 13-78.3 17.9-85 2.1-2.8 2.1-2.8.2-7.1-2.5-5.7-4.3-7-9.1-7.1-2.2 0-4.6-.4-5.3-.9-2-1.2 5.7-1.1 10.3.1 3.2.9 4 1.9 7.6 9.3 8.9 18.1 11.6 34.7 13.7 83.2.9 19.2 2.2 41.1 3 48.5.8 7.4 1.5 18.2 1.6 24 0 5.8.4 11.4.9 12.5.9 2.4 1 2.1 4-22 2.1-16.3 8.9-55.6 11.1-64 2.7-10.2 17.5-55.5 23.9-73.1l2.2-6 8.6-1.1c4.8-.5 9.1-.6 9.6-.2.5.4 1.5.5 2.2.2.8-.3 2.5.2 3.8 1.1 2.6 1.6 7.1 14.6 9.5 27.1.7 3.3 3 14.5 5.2 25 2.2 10.4 5.5 28.2 7.4 39.5 1.9 11.3 4.8 27.7 6.5 36.5 1.7 8.8 4.4 23.2 6.1 32 1.6 8.8 4.1 21.6 5.4 28.5 1.4 6.9 3.2 17.7 4.1 24 1.4 10.2 2.8 16 3.6 16 .4 0 0-124.4-.6-155.5-.4-25.5 1.1-58.4 3.4-72 .5-3.3 1-8.3 1.1-11 0-2.8.4-5.9.8-7 1.9-4.9 3.3 1.8 9.1 46.9.6 4.4 1.3 8.2 1.5 8.5 1.5 1.4 1.8-2.5 1.6-16.9-.3-25.8 3.5-63.1 6.9-66.3 4-3.7 5.7-1.4 7.2 9.7.6 4.7 1.6 9.4 2.3 10.3 1.5 2 1.6 1.6 3.6-14.6 1.2-10 3.4-16.5 6.6-19.4 1.9-1.6 2-1.6 3.1.8 1.6 3.4 2.8 2.5 3.6-2.3.5-3.4 2.2-5.5 11.3-14.3 6-5.7 13.4-13.4 16.6-17.2 3.2-3.7 6.3-6.7 6.8-6.7 2.2 0 .4 2.9-6.9 10.9-11.9 13.1-14.2 16.4-14.2 20.2 0 5.1 8.6 21.4 15 28.3 3.1 3.4 11.2 12.4 18 20.1 27.9 31.4 37.9 42.4 45.7 50 8.5 8.4 18.3 21.1 21.4 28.1 1.4 3 2.3 10.3 3.8 29.5 6.3 79.8 7 94.1 5.1 107.4-1.4 10.2-5.1 24.1-8 30-1.1 2.2-3.6 7.8-5.5 12.5-2 4.7-7.7 16.3-12.6 25.9-4.9 9.5-8.9 17.5-8.9 17.7 0 .2 50.6.4 112.5.4H968v-3.3c.2-10.6 2-31.4 3.4-38.7 4.8-25.8 5.8-34.1 6.7-61.5.7-18.7.7-33.1 0-43.5-1.2-18.5-1.7-47.3-1.2-77.8.2-12.2-.2-27.3-.8-33.5-.6-6.1-1.6-18-2.2-26.2-.6-8.3-1.7-20.6-2.6-27.5-2.2-18.8-3.1-28.4-4.8-52.3-1.5-22.5-2.5-30.5-4.9-41.7-4.3-19.7-4.4-24-.6-24 1.1 0 2-.5 2-1 0-2 4.4 1.2 11.7 8.7 4 4 11.2 10.8 16 15l8.8 7.6.3-76.9c.1-42.3 0-77.4-.2-78.1-.3-.6-5.7-4.9-12.1-9.4-6.4-4.5-13.3-10.2-15.3-12.5-1.9-2.4-4.8-4.8-6.3-5.5-1.6-.6-10-8.4-18.8-17.3-8.7-8.8-18.4-18.4-21.5-21.1-6.8-6-11-12.6-25.1-39.5-5.9-11.3-13.2-25.2-16.2-30.8-3-5.7-7-14.5-8.9-19.5-3.4-8.8-12.7-27.4-16.5-32.8-1-1.4-3.4-5.7-5.4-9.7-3.3-6.6-4.1-7.5-10.6-11.3-9.2-5.3-13.3-5.5-22.6-.8-5.5 2.8-7.6 4.5-11 9.4-6.1 8.6-11.9 19.4-16.8 31.5-12.3 29.8-17.5 42.1-20.5 48-1.8 3.6-4.1 8.7-5 11.5-5.7 16.2-22.8 50-32.6 64.3-3.5 5.1-6.4 9.9-6.4 10.5 0 .7.9 6 2 11.8 2.5 14.2 3.5 25.5 2.3 26.2-.6.4-1.3-1.6-1.7-5.1-.4-3.1-1.3-8.2-2.1-11.2s-1.5-6.9-1.5-8.6c0-3.2-1.1-7.3-6.1-22.7-1.6-4.9-2.9-9.4-2.9-9.9 0-1-3-8-13.5-31.5-1.3-2.9-5.3-10.1-9-16-3.6-5.9-7.1-11.7-7.8-12.8-5.8-9.8-8.4-13.6-16.7-25-5.2-7.2-11.8-15.9-14.5-19.5-8.4-10.9-34.4-36.7-43.5-43.2-4.7-3.4-9.5-7-10.6-8-1.2-1.1-6.6-4.3-12-7.1-12.6-6.7-12.7-6.8-8.8-22.3 3.4-13.7 4.9-16.4 9.9-18.8 4.8-2.3 9.5-1.7 20.1 2.5 4.3 1.7 10.2 4 12.9 5.1 12.4 4.8 19.4 6 23.7 3.7 2.7-1.5 5.1-7.4 4.3-11-1-4.4-18.1-19.5-34-29.9-4.4-2.9-8.4-5.8-9-6.4-2.5-2.9-15.4-11.9-41.6-29.1-15.6-10.3-32.9-21.7-38.4-25.5-10.8-7.3-19.2-12.2-29.5-17.2-15-7.2-24.8-11.7-29-13.1-7.4-2.6-53.1-16.7-62.2-19.2-2.5-.7-5.1-1.5-5.6-1.9-2-1.2-25.6-5.7-43.7-8.3-17.8-2.5-41.2-3.8-49-2.6zm250.8 286.2c4.5 1 11.3 4.5 21 11 5.6 3.6 19.8 19.1 23 24.9 3.5 6.4 5.6 17.6 6.4 33.2.5 10.4.2 14.4-1.6 23.9-4.8 24.7-19.8 42.9-38.6 46.9-19.7 4.2-49 1.4-61.1-5.7-4.8-2.9-17.7-13.5-21.4-17.7-3.9-4.5-9-14.9-9-18.4 0-1.4-.7-4.8-1.6-7.5-3.8-12.2-.7-41.1 5.9-56.5 1.7-3.8 7.2-11.3 12.9-17.5 5.3-5.8 26.8-16 36.3-17.3 8.2-1.2 21-.8 27.8.7zm72.8 13.8c2 2.1 4.8 5.5 6.4 7.5l2.7 3.8h-2.4c-1.4 0-4.5-.3-6.9-.6-4.1-.6-4.6-1-6.2-4.8-2-4.9-2.1-6.8-.5-8.4 1.9-1.9 3.2-1.4 6.9 2.5zm7.2 15.3c2.2 0 2.2 1.6-.4 8.1-1.2 3-2.4 6.3-2.8 7.4-.6 1.5-1.4.1-3.4-6-3.6-10.6-3.5-10.9 1.1-10.1 2 .3 4.5.6 5.5.6zm21.1 18.5l4.8 6-3.3.7c-3.9.8-21.6-2.7-23.7-4.6-1-1-.5-3 2.8-10.2l4.1-8.9 5.2 5.6c2.9 3 7.4 8.2 10.1 11.4zm-3.1 8c7.9 0 9.4.9 6.1 3.6-.9.8-5.7 6-10.7 11.8l-9.1 10.4-2.3-10.9c-1.3-6-2.6-12.1-3-13.7l-.6-2.7 5.9.7c3.3.5 9.4.8 13.7.8zm16.5 10.7c6.1 8 16.5 30.8 14.9 32.5-.4.3-7.3-1.5-15.4-4-8.1-2.6-17.8-5.4-21.5-6.3l-6.8-1.6 4.2-5.2c4.9-6 19-20.6 19.9-20.6.4 0 2.5 2.4 4.7 5.2zm-8.8 31.1c18.7 5.6 20.8 7 13.3 9.2-2.3.7-10.6 4.4-18.5 8.4-8 3.9-14.7 7.1-15.1 7.1-.3 0-.5-6.7-.4-15 .2-12.6.4-15 1.7-14.9.8 0 9.4 2.3 19 5.2zm29.4 14.9c1.1 2.9 2.3 5.9 2.9 6.6 1 1.3 6 42.3 5.2 43.1-.3.2-1.8-.7-3.3-2.1-7.1-6.5-36.5-26.1-44.8-29.8-3.5-1.6-6.4-3.3-6.4-3.7.1-.4 6.9-3.9 15.3-7.8 8.4-3.8 17.9-8.4 21.2-10.2 3.7-2 6.3-2.9 7-2.3.6.5 1.9 3.3 2.9 6.2zM657.5 455c3.8 2.6 21.3 13.4 39.3 24.3 7.3 4.4 8.3 5.3 8 7.6-.3 2.5-.5 2.6-6.3 2.3-3.3-.2-9.8.4-14.5 1.2-10.4 2-34.5 4.6-42.2 4.6h-5.7l.9-3.1c.5-1.6.7-3.6.4-4.4-.3-.8.3-4.3 1.5-7.7 2.5-7.6 3.8-13.4 5.1-22.9.6-3.9 1.3-7.5 1.6-8 .5-1 4 .8 11.9 6.1zm-362.9 22.4c2.5 2.9 3.4 5 3.8 8.9.3 2.9 1 9.7 1.6 15.2.5 5.5.7 16.1.5 23.5-.3 7.4-.7 21.1-.9 30.4-.3 9.6-.9 17.3-1.4 17.8-.8.8-6.2.7-17.4-.1-13.8-.9-17.8-1.6-24.9-4.1-4.6-1.6-9.8-3-11.6-3-1.7 0-8.7-1.4-15.5-3-6.7-1.7-13.5-3-15.1-3-3 0-12.7-2.9-12.7-3.8 0-.2.6-1 1.4-1.6.8-.6 5.3-6.1 10.1-12.1 22.9-28.7 58.8-66.6 65-68.5 1.7-.5 5.5-.8 8.4-.6 4.9.3 5.8.7 8.7 4zm410.1 26.8c-.9 19.3-6.8 44.8-10.2 44.8-1.4 0-7.8-5.3-20.1-16.9-13.5-12.7-20.1-18.8-28.2-25.9-4-3.5-6.9-6.8-6.6-7.4.4-.5 2.5-.8 4.8-.6 5.7.6 53.3-3.6 54.5-4.8.2-.2 1.8-.4 3.4-.4h3l-.6 11.2zm-54.5 11c16.2 16.1 28.6 27.2 37 33 5.3 3.7 7.2 6.8 5.1 8.1-.5.3-10.2-1.7-21.8-4.3-54-12.2-53-11.8-50.6-18.8.7-2 2.6-5.7 4-8.2 2.4-3.9 3.9-7.2 9.3-21.3.6-1.5 1.4-2.7 1.9-2.7.4 0 7.3 6.4 15.1 14.2zm-168.9 8.2c5 2.1 9.5 7.5 10.6 12.8 1.6 6.9-.1 13.8-5.6 23.2-5.8 9.8-8.8 13.3-17.3 20.1-13.8 11-23.1 15-37.5 16.3-14.4 1.3-20.7-1.3-25-10.5-3.5-7.2-3.3-12.8.6-20.6 8.7-17.3 23-31.2 39.5-38.4 8.4-3.7 28.9-5.4 34.7-2.9zm141.3 28.4c7.3 13 24.8 40.2 30.1 46.6 1.3 1.6 2.2 3.1 1.9 3.3-.2.3-6-1.8-12.8-4.5-10.6-4.3-18.9-8.3-38.5-18.7-2.3-1.3-5.5-2.7-7.2-3.3-1.7-.6-3.1-1.5-3.1-1.9 0-.4 4.3-6.1 9.5-12.6 5.2-6.6 10.3-13.2 11.2-14.7 2.3-4 4.3-2.7 8.9 5.8zm15.9-2.5c8 2.2 46.2 8.7 50.8 8.7.9 0 1.7.5 1.7 1 0 2-3.9 8.5-9 15-2.7 3.6-7.1 9.6-9.7 13.5-4.9 7.3-11.1 14.5-12.5 14.5-.5 0-2.9-3.3-5.5-7.3-2.5-3.9-8.3-12.9-12.8-19.8-4.6-6.9-10.2-16.3-12.5-20.9-4-7.9-4.1-8.2-1.8-7.7 1.3.3 6.4 1.7 11.3 3zm-459.7 2.8c3.4.6 6.1 1.4 5.8 1.6-.5.5-12.5-1.7-15.1-2.8-2.3-1-1.1-.8 9.3 1.2zm19.5 3.6c-1.3.2-3.3.2-4.5 0-1.3-.2-.3-.4 2.2-.4s3.5.2 2.3.4zm392.6 26.8c1.2 3.4 13.4 32.6 20 47.8 2.8 6.4 1.5 6.1-9.2-2.1-8-6.1-30.3-21.2-31.3-21.2s-12.4-8.4-12.4-9.2c0-.4 5.8-4.6 13-9.3 7.1-4.7 13.2-9 13.6-9.6 1.4-2.3 4.8-.4 6.3 3.6zm61.6 28.4c-4.2 4.2-32.4 23.1-34.6 23.1-1.6 0-7.2-12.3-14.2-31-1.4-3.6-4.1-10.3-6.1-14.8-2-4.6-3.6-8.5-3.6-8.7 0-.3 13.5 6.4 30.1 14.7 27.4 13.8 29.9 15.2 28.4 16.7zm-97.1-8.7c.7 3.4 2.6 45.1 2.1 45.6-.6.7-32.5-2.7-36.8-3.9-2.9-.8-3.7-1.4-3.3-2.7.3-.9 1.5-5.8 2.6-10.7 1.2-5 2.6-9.8 3.1-10.8s.7-2.3.3-2.8c-.4-.8 0-.8 1.4 0 1.1.6 6.2 5.9 11.3 11.9 8.9 10.2 17.4 18.1 18.4 17 .3-.3-1.6-3.4-4.3-6.9-11.8-15.7-19.3-26.1-19.9-27.4-.3-1 .4-1.9 2.3-2.5 1.6-.6 6.5-2.8 10.9-5 9.4-4.5 11.3-4.8 11.9-1.8zm28 19.3c7.8 5 16.9 10.7 20.3 12.6 3.5 1.9 6.3 3.7 6.3 4 0 .3-5.7 2.5-12.7 4.9-11 3.6-14.3 4.3-24 4.7l-11.3.6-.1-3.9c0-2.1-.2-12-.5-21.8l-.6-18 4.3 3.9c2.3 2.1 10.6 7.9 18.3 13zm-63.4-5.6c0 1-.6 3.6-1.4 5.7-.7 2.2-1.9 7-2.6 10.7-.7 3.7-1.7 6.6-2.2 6.5-.6-.2-3.1-5.2-5.8-11l-4.7-10.7 2.6-1c2.6-1 6.4-1.7 11.4-2 2-.1 2.7.4 2.7 1.8zm-67.7 6.6c2.2 4.6 1.1 4.5-7.2-.2-.2-.2.2-.9.9-1.8 2.1-2.5 4.5-1.7 6.3 2zm12.5-2.1c4.3.4 5.4 1.8 2 2.6-1.3.3-2.9 1.8-3.6 3.3-1.9 3.9-4 3.3-6.2-1.9-2.5-5.8-2.6-5.7 1-4.9 1.7.4 4.7.8 6.8.9zm30.2-.7c-.1 2.1-2.8 5.5-3.4 4.4-1-1.5-2.3-1.4-3 .4-.3.8.1 2 .8 2.8 1.1 1.1 1.1 1.9-.1 5-.9 2.2-2.2 3.7-3.2 3.7-2.3-.1-18.1-3.7-18.8-4.4-.9-.9 6.7-11.6 8.3-11.6.7 0 1.4.4 1.4.8s1.4 2.3 3.1 4.2c3 3.4 3 3.4 2.5.8-.3-1.4-.9-3.3-1.2-4.1-.3-1 .1-1.7 1.3-2 3-.8 12.3-.8 12.3 0zm8.8 7c6 9.5 8.5 14.3 7.8 15-.3.3-2.5 0-4.8-.6-2.4-.7-6.9-1.8-10-2.5-3.2-.7-6-1.5-6.3-1.8-.7-.6 6.7-17.8 7.6-17.8.4 0 2.9 3.5 5.7 7.7zM390.7 800.2c-.3.8-.6.5-.6-.6-.1-1.1.2-1.7.5-1.3.3.3.4 1.2.1 1.9z"/><path d="M120.3 611.2c-6.9 7.7-28.9 40.9-34.6 52.4-3.6 7.2-9 17.3-12 22.6-9 15.5-18.3 34.8-22.1 45.8-4.2 11.9-7.6 27.8-7.5 34.7v4.8l1.3-3.5c6.7-18 35.2-63.7 55.8-89.4 3.2-3.9 10.5-13.3 16.3-20.8 5.8-7.6 12.4-15.9 14.8-18.6 6.7-7.7 9.7-11.5 9.7-12.5 0-.5-2.3-3-5.2-5.5-2.8-2.6-6.9-6.4-9.1-8.5-2.2-2-4.3-3.7-4.6-3.7-.4 0-1.7 1-2.8 2.2zM190.1 665.6c-1.4 6.2-.9 10.3 1.9 16.9 1.3 3 2.5 4.5 3.7 4.4 1 0 1.3-.3.6-.6-.7-.2-2.2-3.4-3.3-7-1.6-5.1-1.9-8-1.4-12.9.4-3.5.5-6.4.2-6.4s-1 2.5-1.7 5.6z"/></svg>