<?xml version="1.0" standalone="no"?>
<!DOCTYPE svg PUBLIC "-//W3C//DTD SVG 20010904//EN"
 "http://www.w3.org/TR/2001/REC-SVG-20010904/DTD/svg10.dtd">
<svg version="1.0" xmlns="http://www.w3.org/2000/svg"
 width="1000.000000pt" height="1000.000000pt" viewBox="0 0 1000.000000 1000.000000"
 preserveAspectRatio="xMidYMid meet">
<metadata>
Created by potrace 1.11, written by Peter Selinger 2001-2013
</metadata>
<g transform="translate(0.000000,1000.000000) scale(0.100000,-0.100000)"
fill="#000000" stroke="none">
<path d="M3105 9663 c-85 -13 -22 -38 180 -72 165 -29 211 -39 232 -50 10 -6
51 -20 92 -32 41 -11 97 -31 125 -44 28 -12 87 -36 131 -53 98 -38 352 -166
421 -212 28 -19 98 -67 155 -105 57 -39 160 -109 229 -155 93 -62 159 -118
256 -215 144 -143 204 -222 261 -341 31 -65 38 -89 37 -136 -2 -96 -35 -114
-83 -44 -53 77 -113 129 -271 235 -196 132 -286 175 -426 202 -135 26 -342 24
-411 -5 -73 -31 -55 -41 70 -41 110 0 243 -16 302 -37 62 -22 201 -115 279
-186 85 -78 115 -112 194 -227 63 -90 81 -125 91 -179 10 -52 4 -56 -91 -56
l-58 0 -85 82 c-124 118 -227 194 -331 243 -51 24 -95 48 -98 53 -12 20 -159
73 -239 88 -154 27 -287 13 -393 -40 -82 -41 -174 -140 -174 -187 0 -18 36 -9
110 27 41 20 86 38 100 40 132 16 154 17 184 1 17 -9 59 -23 94 -31 35 -9 97
-31 138 -51 65 -29 92 -51 190 -150 63 -64 114 -120 114 -125 0 -13 -173 -63
-220 -63 -50 1 -90 13 -170 56 -30 16 -82 39 -115 52 -33 12 -89 37 -124 54
-36 17 -72 31 -80 31 -9 0 -41 10 -71 21 -166 64 -349 90 -449 64 -115 -30
-221 -112 -242 -187 -16 -59 4 -78 32 -30 10 16 47 44 98 70 75 40 88 44 154
44 103 -1 292 -57 340 -102 12 -10 58 -48 102 -83 45 -37 99 -91 123 -125 l42
-61 -67 -46 c-39 -26 -79 -45 -95 -45 -45 0 -153 28 -353 92 -585 186 -621
194 -850 192 -194 -2 -294 -19 -400 -69 -44 -20 -90 -41 -103 -46 -35 -13
-179 -128 -258 -206 -58 -57 -78 -86 -123 -178 -85 -174 -92 -195 -106 -318
-10 -78 11 -238 41 -312 13 -33 24 -64 24 -68 0 -5 21 -33 47 -63 76 -88 113
-68 69 39 -34 83 -55 167 -62 252 -7 83 19 174 83 293 80 146 332 326 466 330
21 1 42 4 47 7 20 13 317 5 400 -9 101 -18 378 -96 448 -126 65 -28 113 -78
115 -120 2 -37 8 -34 -253 -158 -80 -38 -181 -95 -225 -127 -44 -32 -138 -99
-208 -148 -70 -50 -147 -107 -170 -127 -23 -20 -60 -48 -82 -62 -22 -14 -89
-70 -150 -124 -286 -257 -458 -473 -577 -724 -112 -237 -139 -401 -99 -605 26
-134 60 -240 72 -228 5 5 12 72 15 148 10 221 29 284 147 467 108 169 252 329
366 405 31 21 58 41 61 44 3 4 37 30 75 59 237 180 439 270 604 270 88 0 111
-7 111 -34 0 -31 -121 -218 -235 -362 -55 -69 -122 -159 -150 -199 -96 -138
-120 -171 -175 -241 -30 -40 -106 -145 -167 -235 -62 -90 -141 -205 -175 -255
-35 -50 -101 -138 -147 -195 -78 -97 -181 -241 -181 -254 0 -3 9 -5 21 -5 11
0 18 -4 15 -9 -16 -25 -240 27 -364 84 -94 44 -298 176 -412 267 -47 38 -123
99 -170 136 -47 37 -110 94 -140 127 -30 33 -105 111 -167 175 -61 63 -151
158 -200 210 -48 52 -93 96 -100 98 -33 9 -22 -45 44 -198 119 -276 281 -553
449 -765 35 -44 90 -117 123 -161 94 -127 392 -445 556 -594 82 -74 174 -158
205 -186 72 -67 280 -234 319 -257 28 -16 31 -16 31 -2 0 24 30 76 40 70 5 -3
12 0 16 6 4 8 3 9 -4 5 -7 -4 -12 -1 -12 7 0 8 6 17 14 20 8 3 13 14 10 24
-10 42 46 77 100 62 50 -14 72 -38 81 -88 5 -33 2 -48 -15 -76 -24 -39 -49
-44 -90 -19 -17 10 -18 13 -5 9 47 -17 55 -17 61 -1 17 44 -37 102 -88 94 -40
-6 -30 -25 16 -32 56 -9 66 -22 29 -38 -48 -20 -63 -39 -63 -78 0 -32 5 -39
40 -59 40 -22 40 -23 41 -84 1 -45 3 -54 8 -32 10 46 26 35 29 -20 3 -45 -1
-54 -30 -87 -18 -19 -43 -41 -55 -47 -19 -10 -25 -6 -52 26 -17 21 -38 58 -47
83 -9 25 -20 54 -25 65 -16 35 0 -34 23 -98 22 -61 56 -91 116 -103 27 -5 36
-1 62 26 31 33 45 72 55 152 l6 46 96 -49 c94 -48 137 -58 173 -39 30 16 80
107 81 148 2 64 -115 281 -214 397 -19 22 -40 51 -47 65 -7 14 -28 45 -47 69
-66 87 -42 98 130 56 56 -13 138 -29 182 -35 152 -19 383 -76 409 -101 20 -18
20 -20 -8 -206 -15 -104 -38 -251 -51 -328 -13 -77 -37 -230 -55 -340 -18
-110 -54 -320 -81 -467 -26 -146 -55 -326 -64 -400 -15 -122 -30 -231 -85
-593 -32 -211 -99 -875 -107 -1069 -4 -85 -2 -117 6 -112 6 4 11 19 11 33 0
50 72 347 107 442 35 96 137 407 238 726 30 94 91 260 136 370 45 110 110 272
145 359 35 87 87 202 117 255 30 54 57 107 61 118 4 12 30 64 58 115 27 51 70
133 95 181 75 151 235 410 243 397 4 -7 12 -10 17 -7 4 3 19 -1 33 -9 14 -7
21 -13 17 -14 -5 0 -17 5 -28 10 -12 7 -19 7 -19 1 0 -6 -6 -8 -14 -5 -8 3
-22 -10 -36 -33 -116 -196 -178 -310 -205 -375 -18 -42 -37 -83 -42 -90 -6 -7
-9 -31 -7 -53 2 -22 8 -78 13 -125 5 -47 17 -161 25 -255 9 -93 23 -217 31
-275 20 -143 23 -168 35 -298 10 -112 56 -421 63 -428 2 -2 9 53 16 123 7 71
17 169 22 218 5 50 13 167 19 260 15 246 49 557 81 755 6 36 15 90 19 120 5
30 27 110 50 178 l40 123 -25 63 c-14 34 -25 66 -25 69 0 15 21 6 27 -10 3
-10 12 -25 20 -34 14 -17 21 -68 53 -409 12 -118 50 -489 85 -825 35 -335 89
-853 120 -1150 49 -474 65 -604 65 -527 0 11 9 166 20 344 11 178 31 521 45
763 73 1264 74 1274 101 1390 14 61 41 143 60 183 40 82 42 83 148 56 72 -18
102 -40 41 -30 -22 4 -63 9 -91 13 l-52 6 -27 -47 c-31 -53 -31 -56 19 -179
44 -106 62 -172 76 -280 6 -45 22 -149 35 -232 13 -82 29 -202 36 -265 l13
-115 8 85 c24 282 130 783 179 850 21 28 21 28 2 71 -25 57 -43 70 -91 71 -22
0 -46 4 -53 9 -20 12 57 11 103 -1 32 -9 40 -19 76 -93 89 -181 116 -347 137
-832 9 -192 22 -411 30 -485 8 -74 15 -182 16 -240 0 -58 4 -114 9 -125 9 -24
10 -21 40 220 21 163 89 556 111 640 27 102 175 555 239 731 l22 60 86 11 c48
5 91 6 96 2 5 -4 15 -5 22 -2 8 3 25 -2 38 -11 26 -16 71 -146 95 -271 7 -33
30 -145 52 -250 22 -104 55 -282 74 -395 19 -113 48 -277 65 -365 17 -88 44
-232 61 -320 16 -88 41 -216 54 -285 14 -69 32 -177 41 -240 14 -102 28 -160
36 -160 4 0 0 1244 -6 1555 -4 255 11 584 34 720 5 33 10 83 11 110 0 28 4 59
8 70 19 49 33 -18 91 -469 6 -44 13 -82 15 -85 15 -14 18 25 16 169 -3 258 35
631 69 663 40 37 57 14 72 -97 6 -47 16 -94 23 -103 15 -20 16 -16 36 146 12
100 34 165 66 194 19 16 20 16 31 -8 16 -34 28 -25 36 23 5 34 22 55 113 143
60 57 134 134 166 172 32 37 63 67 68 67 22 0 4 -29 -69 -109 -119 -131 -142
-164 -142 -202 0 -51 86 -214 150 -283 31 -34 112 -124 180 -201 279 -314 379
-424 457 -500 85 -84 183 -211 214 -281 14 -30 23 -103 38 -295 63 -798 70
-941 51 -1074 -14 -102 -51 -241 -80 -300 -11 -22 -36 -78 -55 -125 -20 -47
-77 -163 -126 -259 -49 -95 -89 -175 -89 -177 0 -2 506 -4 1125 -4 l1125 0 0
33 c2 106 20 314 34 387 48 258 58 341 67 615 7 187 7 331 0 435 -12 185 -17
473 -12 778 2 122 -2 273 -8 335 -6 61 -16 180 -22 262 -6 83 -17 206 -26 275
-22 188 -31 284 -48 523 -15 225 -25 305 -49 417 -43 197 -44 240 -6 240 11 0
20 5 20 10 0 20 44 -12 117 -87 40 -40 112 -108 160 -150 l88 -76 3 769 c1
423 0 774 -2 781 -3 6 -57 49 -121 94 -64 45 -133 102 -153 125 -19 24 -48 48
-63 55 -16 6 -100 84 -188 173 -87 88 -184 184 -215 211 -68 60 -110 126 -251
395 -59 113 -132 252 -162 308 -30 57 -70 145 -89 195 -34 88 -127 274 -165
328 -10 14 -34 57 -54 97 -33 66 -41 75 -106 113 -92 53 -133 55 -226 8 -55
-28 -76 -45 -110 -94 -61 -86 -119 -194 -168 -315 -123 -298 -175 -421 -205
-480 -18 -36 -41 -87 -50 -115 -57 -162 -228 -500 -326 -643 -35 -51 -64 -99
-64 -105 0 -7 9 -60 20 -118 25 -142 35 -255 23 -262 -6 -4 -13 16 -17 51 -4
31 -13 82 -21 112 -8 30 -15 69 -15 86 0 32 -11 73 -61 227 -16 49 -29 94 -29
99 0 10 -30 80 -135 315 -13 29 -53 101 -90 160 -36 59 -71 117 -78 128 -58
98 -84 136 -167 250 -52 72 -118 159 -145 195 -84 109 -344 367 -435 432 -47
34 -95 70 -106 80 -12 11 -66 43 -120 71 -126 67 -127 68 -88 223 34 137 49
164 99 188 48 23 95 17 201 -25 43 -17 102 -40 129 -51 124 -48 194 -60 237
-37 27 15 51 74 43 110 -10 44 -181 195 -340 299 -44 29 -84 58 -90 64 -25 29
-154 119 -416 291 -156 103 -329 217 -384 255 -108 73 -192 122 -295 172 -150
72 -248 117 -290 131 -74 26 -531 167 -622 192 -25 7 -51 15 -56 19 -20 12
-256 57 -437 83 -178 25 -412 38 -490 26z m2508 -2862 c45 -10 113 -45 210
-110 56 -36 198 -191 230 -249 35 -64 56 -176 64 -332 5 -104 2 -144 -16 -239
-48 -247 -198 -429 -386 -469 -197 -42 -490 -14 -611 57 -48 29 -177 135 -214
177 -39 45 -90 149 -90 184 0 14 -7 48 -16 75 -38 122 -7 411 59 565 17 38 72
113 129 175 53 58 268 160 363 173 82 12 210 8 278 -7z m728 -138 c20 -21 48
-55 64 -75 l27 -38 -24 0 c-14 0 -45 3 -69 6 -41 6 -46 10 -62 48 -20 49 -21
68 -5 84 19 19 32 14 69 -25z m72 -153 c22 0 22 -16 -4 -81 -12 -30 -24 -63
-28 -74 -6 -15 -14 -1 -34 60 -36 106 -35 109 11 101 20 -3 45 -6 55 -6z m211
-185 l48 -60 -33 -7 c-39 -8 -216 27 -237 46 -10 10 -5 30 28 102 l41 89 52
-56 c29 -30 74 -82 101 -114z m-31 -80 c79 0 94 -9 61 -36 -9 -8 -57 -60 -107
-118 l-91 -104 -23 109 c-13 60 -26 121 -30 137 l-6 27 59 -7 c33 -5 94 -8
137 -8z m165 -107 c61 -80 165 -308 149 -325 -4 -3 -73 15 -154 40 -81 26
-178 54 -215 63 l-68 16 42 52 c49 60 190 206 199 206 4 0 25 -24 47 -52z
m-88 -311 c187 -56 208 -70 133 -92 -23 -7 -106 -44 -185 -84 -80 -39 -147
-71 -151 -71 -3 0 -5 67 -4 150 2 126 4 150 17 149 8 0 94 -23 190 -52z m294
-149 c11 -29 23 -59 29 -66 10 -13 60 -423 52 -431 -3 -2 -18 7 -33 21 -71 65
-365 261 -448 298 -35 16 -64 33 -64 37 1 4 69 39 153 78 84 38 179 84 212
102 37 20 63 29 70 23 6 -5 19 -33 29 -62z m-389 -228 c38 -26 213 -134 393
-243 73 -44 83 -53 80 -76 -3 -25 -5 -26 -63 -23 -33 2 -98 -4 -145 -12 -104
-20 -345 -46 -422 -46 l-57 0 9 31 c5 16 7 36 4 44 -3 8 3 43 15 77 25 76 38
134 51 229 6 39 13 75 16 80 5 10 40 -8 119 -61z m-3629 -224 c25 -29 34 -50
38 -89 3 -29 10 -97 16 -152 5 -55 7 -161 5 -235 -3 -74 -7 -211 -9 -304 -3
-96 -9 -173 -14 -178 -8 -8 -62 -7 -174 1 -138 9 -178 16 -249 41 -46 16 -98
30 -116 30 -17 0 -87 14 -155 30 -67 17 -135 30 -151 30 -30 0 -127 29 -127
38 0 2 6 10 14 16 8 6 53 61 101 121 229 287 588 666 650 685 17 5 55 8 84 6
49 -3 58 -7 87 -40z m4101 -268 c-9 -193 -68 -448 -102 -448 -14 0 -78 53
-201 169 -135 127 -201 188 -282 259 -40 35 -69 68 -66 74 4 5 25 8 48 6 57
-6 533 36 545 48 2 2 18 4 34 4 l30 0 -6 -112z m-545 -110 c162 -161 286 -272
370 -330 53 -37 72 -68 51 -81 -5 -3 -102 17 -218 43 -540 122 -530 118 -506
188 7 20 26 57 40 82 24 39 39 72 93 213 6 15 14 27 19 27 4 0 73 -64 151
-142z m-1689 -82 c50 -21 95 -75 106 -128 16 -69 -1 -138 -56 -232 -58 -98
-88 -133 -173 -201 -138 -110 -231 -150 -375 -163 -144 -13 -207 13 -250 105
-35 72 -33 128 6 206 87 173 230 312 395 384 84 37 289 54 347 29z m1413 -284
c73 -130 248 -402 301 -466 13 -16 22 -31 19 -33 -2 -3 -60 18 -128 45 -106
43 -189 83 -385 187 -23 13 -55 27 -72 33 -17 6 -31 15 -31 19 0 4 43 61 95
126 52 66 103 132 112 147 23 40 43 27 89 -58z m159 25 c80 -22 462 -87 508
-87 9 0 17 -5 17 -10 0 -20 -39 -85 -90 -150 -27 -36 -71 -96 -97 -135 -49
-73 -111 -145 -125 -145 -5 0 -29 33 -55 73 -25 39 -83 129 -128 198 -46 69
-102 163 -125 209 -40 79 -41 82 -18 77 13 -3 64 -17 113 -30z m-4597 -28 c34
-6 61 -14 58 -16 -5 -5 -125 17 -151 28 -23 10 -11 8 93 -12z m195 -36 c-13
-2 -33 -2 -45 0 -13 2 -3 4 22 4 25 0 35 -2 23 -4z m3926 -268 c12 -34 134
-326 200 -478 28 -64 15 -61 -92 21 -80 61 -303 212 -313 212 -10 0 -124 84
-124 92 0 4 58 46 130 93 71 47 132 90 136 96 14 23 48 4 63 -36z m616 -284
c-42 -42 -324 -231 -346 -231 -16 0 -72 123 -142 310 -14 36 -41 103 -61 148
-20 46 -36 85 -36 87 0 3 135 -64 301 -147 274 -138 299 -152 284 -167z m-971
87 c7 -34 26 -451 21 -456 -6 -7 -325 27 -368 39 -29 8 -37 14 -33 27 3 9 15
58 26 107 12 50 26 98 31 108 5 10 7 23 3 28 -4 8 0 8 14 0 11 -6 62 -59 113
-119 89 -102 174 -181 184 -170 3 3 -16 34 -43 69 -118 157 -193 261 -199 274
-3 10 4 19 23 25 16 6 65 28 109 50 94 45 113 48 119 18z m280 -193 c78 -50
169 -107 203 -126 35 -19 63 -37 63 -40 0 -3 -57 -25 -127 -49 -110 -36 -143
-43 -240 -47 l-113 -6 -1 39 c0 21 -2 120 -5 218 l-6 180 43 -39 c23 -21 106
-79 183 -130z m-634 56 c0 -10 -6 -36 -14 -57 -7 -22 -19 -70 -26 -107 -7 -37
-17 -66 -22 -65 -6 2 -31 52 -58 110 l-47 107 26 10 c26 10 64 17 114 20 20 1
27 -4 27 -18z m-677 -66 c22 -46 11 -45 -72 2 -2 2 2 9 9 18 21 25 45 17 63
-20z m125 21 c43 -4 54 -18 20 -26 -13 -3 -29 -18 -36 -33 -19 -39 -40 -33
-62 19 -25 58 -26 57 10 49 17 -4 47 -8 68 -9z m302 7 c-1 -21 -28 -55 -34
-44 -10 15 -23 14 -30 -4 -3 -8 1 -20 8 -28 11 -11 11 -19 -1 -50 -9 -22 -22
-37 -32 -37 -23 1 -181 37 -188 44 -9 9 67 116 83 116 7 0 14 -4 14 -8 0 -4
14 -23 31 -42 30 -34 30 -34 25 -8 -3 14 -9 33 -12 41 -3 10 1 17 13 20 30 8
123 8 123 0z m88 -70 c60 -95 85 -143 78 -150 -3 -3 -25 0 -48 6 -24 7 -69 18
-100 25 -32 7 -60 15 -63 18 -7 6 67 178 76 178 4 0 29 -35 57 -77z m-1131
-1735 c-3 -8 -6 -5 -6 6 -1 11 2 17 5 13 3 -3 4 -12 1 -19z"/>
<path d="M1203 3888 c-69 -77 -289 -409 -346 -524 -36 -72 -90 -173 -120 -226
-90 -155 -183 -348 -221 -458 -42 -119 -76 -278 -75 -347 l0 -48 13 35 c67
180 352 637 558 894 32 39 105 133 163 208 58 76 124 159 148 186 67 77 97
115 97 125 0 5 -23 30 -52 55 -28 26 -69 64 -91 85 -22 20 -43 37 -46 37 -4 0
-17 -10 -28 -22z"/>
<path d="M1901 3344 c-14 -62 -9 -103 19 -169 13 -30 25 -45 37 -44 10 0 13 3
6 6 -7 2 -22 34 -33 70 -16 51 -19 80 -14 129 4 35 5 64 2 64 -3 0 -10 -25
-17 -56z"/>
</g>
</svg>
